# xmcd
#
# Track frame offsets: 
#        150
#        20725
#        36798
#        54618
#        73475
#        95073
#        112298
#        125118
#        142693
#        160305
#        177255
#        197343
#        215748
#        231973
#
# Disc length: 3344 seconds
#
# Revision: 0
# Processed by: cddbd v1.5.2PL0 Copyright (c) Steve Scherf et al.
# Submitted via: ExactAudioCopy v1.3
#
DISCID=da0d0e0e
DTITLE=NEW KIDS ON THE BLOCK - Piracy精選
DYEAR=1900
DGENRE=Pop
TTITLE0=Step By Step
TTITLE1=Games
TTITLE2=If You Go Away
TTITLE3=Call It What You Want
TTITLE4=Hangin' Tough (In A Funky Way)
TTITLE5=Valentine Girl
TTITLE6=Happy Birthday Girl
TTITLE7=I'll Be Loving You (Forever)
TTITLE8=This One's For The Children
TTITLE9=Hangin' Tough
TTITLE10=Didn't I (Blow Your Mind)
TTITLE11=Let's Try It Again
TTITLE12=Tonight
TTITLE13=Cover Girl
EXTD=
EXTT0=
EXTT1=
EXTT2=
EXTT3=
EXTT4=
EXTT5=
EXTT6=
EXTT7=
EXTT8=
EXTT9=
EXTT10=
EXTT11=
EXTT12=
EXTT13=
PLAYORDER=
